<svg xmlns="http://www.w3.org/2000/svg" width="760" height="440" viewBox="0 0 760 440" font-family="monospace">
<rect width="760" height="440" fill="#0d1117"/>
<text x="20" y="26" fill="#e6edf3" font-size="15">Boruvka MST: edges coloured by the round they were added (early = blue, late = red)</text>
<line x1="34.0" y1="102.9" x2="119.3" y2="91.9" stroke="#4dabf7" stroke-width="2"/>
<line x1="496.9" y1="208.6" x2="444.5" y2="214.5" stroke="#4dabf7" stroke-width="2"/>
<line x1="241.9" y1="54.4" x2="244.4" y2="87.4" stroke="#4dabf7" stroke-width="2"/>
<line x1="563.7" y1="75.6" x2="485.5" y2="54.0" stroke="#4dabf7" stroke-width="2"/>
<line x1="124.4" y1="105.0" x2="119.3" y2="91.9" stroke="#4dabf7" stroke-width="2"/>
<line x1="124.4" y1="105.0" x2="117.5" y2="128.2" stroke="#4dabf7" stroke-width="2"/>
<line x1="576.7" y1="295.3" x2="532.1" y2="247.2" stroke="#4dabf7" stroke-width="2"/>
<line x1="513.1" y1="406.0" x2="448.8" y2="384.6" stroke="#4dabf7" stroke-width="2"/>
<line x1="532.1" y1="247.2" x2="465.7" y2="246.3" stroke="#4dabf7" stroke-width="2"/>
<line x1="222.7" y1="162.9" x2="101.6" y2="159.9" stroke="#4dabf7" stroke-width="2"/>
<line x1="698.3" y1="286.5" x2="726.0" y2="249.4" stroke="#4dabf7" stroke-width="2"/>
<line x1="465.7" y1="246.3" x2="444.5" y2="214.5" stroke="#4dabf7" stroke-width="2"/>
<line x1="34.7" y1="369.2" x2="145.1" y2="362.3" stroke="#4dabf7" stroke-width="2"/>
<line x1="117.5" y1="128.2" x2="101.6" y2="159.9" stroke="#4dabf7" stroke-width="2"/>
<line x1="216.5" y1="331.8" x2="158.3" y2="315.8" stroke="#4dabf7" stroke-width="2"/>
<line x1="328.3" y1="391.0" x2="294.6" y2="331.1" stroke="#4dabf7" stroke-width="2"/>
<line x1="496.9" y1="208.6" x2="596.1" y2="168.4" stroke="#4dabf7" stroke-width="2"/>
<line x1="333.9" y1="296.7" x2="300.9" y2="263.2" stroke="#4dabf7" stroke-width="2"/>
<line x1="158.3" y1="315.8" x2="145.1" y2="362.3" stroke="#4dabf7" stroke-width="2"/>
<line x1="444.5" y1="214.5" x2="411.4" y2="137.5" stroke="#4dabf7" stroke-width="2"/>
<line x1="513.1" y1="406.0" x2="679.6" y2="396.4" stroke="#4dabf7" stroke-width="2"/>
<line x1="333.9" y1="296.7" x2="294.6" y2="331.1" stroke="#4dabf7" stroke-width="2"/>
<line x1="124.4" y1="105.0" x2="244.4" y2="87.4" stroke="#06d6a0" stroke-width="2"/>
<line x1="576.7" y1="295.3" x2="698.3" y2="286.5" stroke="#06d6a0" stroke-width="2"/>
<line x1="485.5" y1="54.0" x2="411.4" y2="137.5" stroke="#06d6a0" stroke-width="2"/>
<line x1="328.3" y1="391.0" x2="448.8" y2="384.6" stroke="#06d6a0" stroke-width="2"/>
<line x1="216.5" y1="331.8" x2="294.6" y2="331.1" stroke="#06d6a0" stroke-width="2"/>
<line x1="244.4" y1="87.4" x2="411.4" y2="137.5" stroke="#ffd43b" stroke-width="2"/>
<line x1="465.7" y1="246.3" x2="333.9" y2="296.7" stroke="#ffd43b" stroke-width="2"/>
<circle cx="34.0" cy="102.9" r="3.5" fill="#e6edf3"/>
<circle cx="496.9" cy="208.6" r="3.5" fill="#e6edf3"/>
<circle cx="241.9" cy="54.4" r="3.5" fill="#e6edf3"/>
<circle cx="563.7" cy="75.6" r="3.5" fill="#e6edf3"/>
<circle cx="124.4" cy="105.0" r="3.5" fill="#e6edf3"/>
<circle cx="117.5" cy="128.2" r="3.5" fill="#e6edf3"/>
<circle cx="576.7" cy="295.3" r="3.5" fill="#e6edf3"/>
<circle cx="119.3" cy="91.9" r="3.5" fill="#e6edf3"/>
<circle cx="513.1" cy="406.0" r="3.5" fill="#e6edf3"/>
<circle cx="532.1" cy="247.2" r="3.5" fill="#e6edf3"/>
<circle cx="222.7" cy="162.9" r="3.5" fill="#e6edf3"/>
<circle cx="698.3" cy="286.5" r="3.5" fill="#e6edf3"/>
<circle cx="465.7" cy="246.3" r="3.5" fill="#e6edf3"/>
<circle cx="34.7" cy="369.2" r="3.5" fill="#e6edf3"/>
<circle cx="444.5" cy="214.5" r="3.5" fill="#e6edf3"/>
<circle cx="485.5" cy="54.0" r="3.5" fill="#e6edf3"/>
<circle cx="101.6" cy="159.9" r="3.5" fill="#e6edf3"/>
<circle cx="216.5" cy="331.8" r="3.5" fill="#e6edf3"/>
<circle cx="244.4" cy="87.4" r="3.5" fill="#e6edf3"/>
<circle cx="328.3" cy="391.0" r="3.5" fill="#e6edf3"/>
<circle cx="596.1" cy="168.4" r="3.5" fill="#e6edf3"/>
<circle cx="158.3" cy="315.8" r="3.5" fill="#e6edf3"/>
<circle cx="333.9" cy="296.7" r="3.5" fill="#e6edf3"/>
<circle cx="448.8" cy="384.6" r="3.5" fill="#e6edf3"/>
<circle cx="145.1" cy="362.3" r="3.5" fill="#e6edf3"/>
<circle cx="300.9" cy="263.2" r="3.5" fill="#e6edf3"/>
<circle cx="726.0" cy="249.4" r="3.5" fill="#e6edf3"/>
<circle cx="411.4" cy="137.5" r="3.5" fill="#e6edf3"/>
<circle cx="679.6" cy="396.4" r="3.5" fill="#e6edf3"/>
<circle cx="294.6" cy="331.1" r="3.5" fill="#e6edf3"/>
<rect x="40" y="400" width="12" height="4" fill="#4dabf7"/>
<text x="56" y="405" fill="#8b949e" font-size="9">rd 1</text>
<rect x="110" y="400" width="12" height="4" fill="#06d6a0"/>
<text x="126" y="405" fill="#8b949e" font-size="9">rd 2</text>
<rect x="180" y="400" width="12" height="4" fill="#ffd43b"/>
<text x="196" y="405" fill="#8b949e" font-size="9">rd 3</text>
</svg>