<svg xmlns="http://www.w3.org/2000/svg" width="760" height="430" viewBox="0 0 760 430" font-family="monospace">
<rect width="760" height="430" fill="#0d1117"/>
<text x="20" y="28" fill="#e6edf3" font-size="18">De Bruijn graph B(2,3): 01011100</text>
<text x="20" y="47" fill="#8b949e" font-size="12">vertices = 2-bit strings, edges = 3-bit strings; an Eulerian circuit reads off the sequence</text>
<defs><marker id="a" markerWidth="9" markerHeight="9" refX="8" refY="3" orient="auto"><path d="M0,0 L8,3 L0,6 Z" fill="#4dabf7"/></marker><marker id="s" markerWidth="9" markerHeight="9" refX="8" refY="3" orient="auto"><path d="M0,0 L8,3 L0,6 Z" fill="#ffd43b"/></marker></defs>
<path d="M380.0,85.0 q -40,-40 0,0 " fill="none" stroke="#4dabf7" stroke-width="1.8"/>
<circle cx="344.0" cy="49.0" r="16" fill="none" stroke="#4dabf7" stroke-width="1.8"/>
<text x="316.0" y="21.0" fill="#4dabf7" font-size="11" text-anchor="middle">000</text>
<path d="M398.4,103.4 Q436.6,178.4 508.8,213.8" fill="none" stroke="#ffd43b" stroke-width="1.8" marker-end="url(#s)"/>
<text x="436.6" y="174.4" fill="#ffd43b" font-size="11" text-anchor="middle">001</text>
<path d="M511.6,253.4 Q436.6,291.6 401.2,363.8" fill="none" stroke="#4dabf7" stroke-width="1.8" marker-end="url(#a)"/>
<text x="436.6" y="287.6" fill="#4dabf7" font-size="11" text-anchor="middle">010</text>
<path d="M504.0,235.0 Q380.0,209.0 260.0,235.0" fill="none" stroke="#ffd43b" stroke-width="1.8" marker-end="url(#s)"/>
<text x="380.0" y="205.0" fill="#ffd43b" font-size="11" text-anchor="middle">011</text>
<path d="M380.0,359.0 Q406.0,235.0 380.0,115.0" fill="none" stroke="#4dabf7" stroke-width="1.8" marker-end="url(#a)"/>
<text x="406.0" y="231.0" fill="#4dabf7" font-size="11" text-anchor="middle">100</text>
<path d="M398.4,366.6 Q473.4,328.4 508.8,256.2" fill="none" stroke="#ffd43b" stroke-width="1.8" marker-end="url(#s)"/>
<text x="473.4" y="324.4" fill="#ffd43b" font-size="11" text-anchor="middle">101</text>
<path d="M248.4,253.4 Q286.6,328.4 358.8,363.8" fill="none" stroke="#4dabf7" stroke-width="1.8" marker-end="url(#a)"/>
<text x="286.6" y="324.4" fill="#4dabf7" font-size="11" text-anchor="middle">110</text>
<path d="M230.0,235.00000000000003 q 40,40 0,0 " fill="none" stroke="#ffd43b" stroke-width="1.8"/>
<circle cx="266.0" cy="271.0" r="16" fill="none" stroke="#ffd43b" stroke-width="1.8"/>
<text x="294.0" y="299.0" fill="#ffd43b" font-size="11" text-anchor="middle">111</text>
<circle cx="380.0" cy="85.0" r="24" fill="#161b22" stroke="#06d6a0" stroke-width="2"/>
<text x="380.0" y="90.0" fill="#e6edf3" font-size="14" text-anchor="middle" font-weight="bold">00</text>
<circle cx="530.0" cy="235.0" r="24" fill="#161b22" stroke="#06d6a0" stroke-width="2"/>
<text x="530.0" y="240.0" fill="#e6edf3" font-size="14" text-anchor="middle" font-weight="bold">01</text>
<circle cx="380.0" cy="385.0" r="24" fill="#161b22" stroke="#06d6a0" stroke-width="2"/>
<text x="380.0" y="390.0" fill="#e6edf3" font-size="14" text-anchor="middle" font-weight="bold">10</text>
<circle cx="230.0" cy="235.0" r="24" fill="#161b22" stroke="#06d6a0" stroke-width="2"/>
<text x="230.0" y="240.0" fill="#e6edf3" font-size="14" text-anchor="middle" font-weight="bold">11</text>
<text x="20" y="390" fill="#4dabf7" font-size="12">blue edges append 0</text>
<text x="20" y="408" fill="#ffd43b" font-size="12">yellow edges append 1</text>
</svg>