<svg xmlns="http://www.w3.org/2000/svg" width="760" height="390" viewBox="0 0 760 390" font-family="monospace">
<rect width="760" height="390" fill="#0d1117"/>
<text x="20" y="26" fill="#e6edf3" font-size="18">Hamming(7,4): parity coverage and the code rate</text>
<text x="20" y="44" fill="#8b949e" font-size="12">which positions each parity bit checks (left); code rate k/n vs block size (right)</text>
<text x="91.0" y="82.0" fill="#ffd43b" font-size="11" text-anchor="middle">1</text>
<text x="91.0" y="68.0" fill="#8b949e" font-size="8" text-anchor="middle">P</text>
<text x="133.0" y="82.0" fill="#ffd43b" font-size="11" text-anchor="middle">2</text>
<text x="133.0" y="68.0" fill="#8b949e" font-size="8" text-anchor="middle">P</text>
<text x="175.0" y="82.0" fill="#4dabf7" font-size="11" text-anchor="middle">3</text>
<text x="175.0" y="68.0" fill="#8b949e" font-size="8" text-anchor="middle">D</text>
<text x="217.0" y="82.0" fill="#ffd43b" font-size="11" text-anchor="middle">4</text>
<text x="217.0" y="68.0" fill="#8b949e" font-size="8" text-anchor="middle">P</text>
<text x="259.0" y="82.0" fill="#4dabf7" font-size="11" text-anchor="middle">5</text>
<text x="259.0" y="68.0" fill="#8b949e" font-size="8" text-anchor="middle">D</text>
<text x="301.0" y="82.0" fill="#4dabf7" font-size="11" text-anchor="middle">6</text>
<text x="301.0" y="68.0" fill="#8b949e" font-size="8" text-anchor="middle">D</text>
<text x="343.0" y="82.0" fill="#4dabf7" font-size="11" text-anchor="middle">7</text>
<text x="343.0" y="68.0" fill="#8b949e" font-size="8" text-anchor="middle">D</text>
<text x="58.0" y="115.0" fill="#ffd43b" font-size="11" text-anchor="end">p1</text>
<rect x="70.0" y="90.0" width="39.0" height="39.0" fill="#8338ec" stroke="#21262d" stroke-width="1"/>
<text x="89.5" y="115.0" fill="#e6edf3" font-size="10" text-anchor="middle">check</text>
<rect x="112.0" y="90.0" width="39.0" height="39.0" fill="#161b22" stroke="#21262d" stroke-width="1"/>
<rect x="154.0" y="90.0" width="39.0" height="39.0" fill="#8338ec" stroke="#21262d" stroke-width="1"/>
<text x="173.5" y="115.0" fill="#e6edf3" font-size="10" text-anchor="middle">check</text>
<rect x="196.0" y="90.0" width="39.0" height="39.0" fill="#161b22" stroke="#21262d" stroke-width="1"/>
<rect x="238.0" y="90.0" width="39.0" height="39.0" fill="#8338ec" stroke="#21262d" stroke-width="1"/>
<text x="257.5" y="115.0" fill="#e6edf3" font-size="10" text-anchor="middle">check</text>
<rect x="280.0" y="90.0" width="39.0" height="39.0" fill="#161b22" stroke="#21262d" stroke-width="1"/>
<rect x="322.0" y="90.0" width="39.0" height="39.0" fill="#8338ec" stroke="#21262d" stroke-width="1"/>
<text x="341.5" y="115.0" fill="#e6edf3" font-size="10" text-anchor="middle">check</text>
<text x="58.0" y="157.0" fill="#ffd43b" font-size="11" text-anchor="end">p2</text>
<rect x="70.0" y="132.0" width="39.0" height="39.0" fill="#161b22" stroke="#21262d" stroke-width="1"/>
<rect x="112.0" y="132.0" width="39.0" height="39.0" fill="#8338ec" stroke="#21262d" stroke-width="1"/>
<text x="131.5" y="157.0" fill="#e6edf3" font-size="10" text-anchor="middle">check</text>
<rect x="154.0" y="132.0" width="39.0" height="39.0" fill="#8338ec" stroke="#21262d" stroke-width="1"/>
<text x="173.5" y="157.0" fill="#e6edf3" font-size="10" text-anchor="middle">check</text>
<rect x="196.0" y="132.0" width="39.0" height="39.0" fill="#161b22" stroke="#21262d" stroke-width="1"/>
<rect x="238.0" y="132.0" width="39.0" height="39.0" fill="#161b22" stroke="#21262d" stroke-width="1"/>
<rect x="280.0" y="132.0" width="39.0" height="39.0" fill="#8338ec" stroke="#21262d" stroke-width="1"/>
<text x="299.5" y="157.0" fill="#e6edf3" font-size="10" text-anchor="middle">check</text>
<rect x="322.0" y="132.0" width="39.0" height="39.0" fill="#8338ec" stroke="#21262d" stroke-width="1"/>
<text x="341.5" y="157.0" fill="#e6edf3" font-size="10" text-anchor="middle">check</text>
<text x="58.0" y="199.0" fill="#ffd43b" font-size="11" text-anchor="end">p4</text>
<rect x="70.0" y="174.0" width="39.0" height="39.0" fill="#161b22" stroke="#21262d" stroke-width="1"/>
<rect x="112.0" y="174.0" width="39.0" height="39.0" fill="#161b22" stroke="#21262d" stroke-width="1"/>
<rect x="154.0" y="174.0" width="39.0" height="39.0" fill="#161b22" stroke="#21262d" stroke-width="1"/>
<rect x="196.0" y="174.0" width="39.0" height="39.0" fill="#8338ec" stroke="#21262d" stroke-width="1"/>
<text x="215.5" y="199.0" fill="#e6edf3" font-size="10" text-anchor="middle">check</text>
<rect x="238.0" y="174.0" width="39.0" height="39.0" fill="#8338ec" stroke="#21262d" stroke-width="1"/>
<text x="257.5" y="199.0" fill="#e6edf3" font-size="10" text-anchor="middle">check</text>
<rect x="280.0" y="174.0" width="39.0" height="39.0" fill="#8338ec" stroke="#21262d" stroke-width="1"/>
<text x="299.5" y="199.0" fill="#e6edf3" font-size="10" text-anchor="middle">check</text>
<rect x="322.0" y="174.0" width="39.0" height="39.0" fill="#8338ec" stroke="#21262d" stroke-width="1"/>
<text x="341.5" y="199.0" fill="#e6edf3" font-size="10" text-anchor="middle">check</text>
<text x="70.0" y="240.0" fill="#8b949e" font-size="10">A flipped bit fails exactly the checks whose bit is set in its position number,</text>
<text x="70.0" y="254.0" fill="#8b949e" font-size="10">so the syndrome (p4 p2 p1 read as binary) IS the error position.</text>
<line x1="450" y1="330" x2="730" y2="330" stroke="#8b949e" stroke-width="1.2"/>
<line x1="450" y1="330" x2="450" y2="90" stroke="#8b949e" stroke-width="1.2"/>
<line x1="450" y1="90.0" x2="730" y2="90.0" stroke="#21262d" stroke-width="1"/>
<text x="728.0" y="86.0" fill="#8b949e" font-size="9" text-anchor="end">rate -> 1</text>
<polyline points="450.0,250.0 503.4,192.9 551.4,154.0 597.2,128.7 641.9,112.9 686.1,103.2 730.0,97.5" fill="none" stroke="#06d6a0" stroke-width="2.5"/>
<circle cx="450.0" cy="250.0" r="2.5" fill="#06d6a0"/>
<circle cx="503.4" cy="192.9" r="2.5" fill="#06d6a0"/>
<circle cx="551.4" cy="154.0" r="2.5" fill="#06d6a0"/>
<circle cx="597.2" cy="128.7" r="2.5" fill="#06d6a0"/>
<circle cx="641.9" cy="112.9" r="2.5" fill="#06d6a0"/>
<circle cx="686.1" cy="103.2" r="2.5" fill="#06d6a0"/>
<circle cx="730.0" cy="97.5" r="2.5" fill="#06d6a0"/>
<text x="503.4" y="208.9" fill="#06d6a0" font-size="9" text-anchor="middle">(7,4)</text>
<text x="444.0" y="213.0" fill="#8b949e" font-size="9" text-anchor="end">0.50</text>
<text x="444.0" y="153.0" fill="#8b949e" font-size="9" text-anchor="end">0.75</text>
<text x="444.0" y="93.0" fill="#8b949e" font-size="9" text-anchor="end">1.00</text>
<text x="450.0" y="345.0" fill="#8b949e" font-size="8" text-anchor="middle">3</text>
<text x="597.2" y="345.0" fill="#8b949e" font-size="8" text-anchor="middle">31</text>
<text x="730.0" y="345.0" fill="#8b949e" font-size="8" text-anchor="middle">255</text>
<text x="590.0" y="360.0" fill="#8b949e" font-size="10" text-anchor="middle">block length n (log)</text>
</svg>