<svg xmlns="http://www.w3.org/2000/svg" width="680" height="420" viewBox="0 0 680 420" font-family="monospace">
<rect width="680" height="420" fill="#0d1117"/>
<text x="20" y="28" fill="#e6edf3" font-size="17">Least-squares line fit via Householder QR</text>
<text x="20" y="47" fill="#8b949e" font-size="12">y = 1.03 + 1.99 x, the line minimising squared vertical error to the points</text>
<line x1="60" y1="360" x2="640" y2="360" stroke="#30363d"/>
<line x1="60" y1="360" x2="60" y2="60" stroke="#30363d"/>
<line x1="60.0" y1="360.0" x2="640.0" y2="60.0" stroke="#06d6a0" stroke-width="2.5"/>
<line x1="60.0" y1="358.6" x2="60.0" y2="360.0" stroke="#ff922b" stroke-width="1" opacity="0.6"/>
<circle cx="60.0" cy="358.6" r="5" fill="#4dabf7"/>
<line x1="142.9" y1="319.8" x2="142.9" y2="317.1" stroke="#ff922b" stroke-width="1" opacity="0.6"/>
<circle cx="142.9" cy="319.8" r="5" fill="#4dabf7"/>
<line x1="225.7" y1="270.3" x2="225.7" y2="274.3" stroke="#ff922b" stroke-width="1" opacity="0.6"/>
<circle cx="225.7" cy="270.3" r="5" fill="#4dabf7"/>
<line x1="308.6" y1="235.8" x2="308.6" y2="231.4" stroke="#ff922b" stroke-width="1" opacity="0.6"/>
<circle cx="308.6" cy="235.8" r="5" fill="#4dabf7"/>
<line x1="391.4" y1="186.3" x2="391.4" y2="188.6" stroke="#ff922b" stroke-width="1" opacity="0.6"/>
<circle cx="391.4" cy="186.3" r="5" fill="#4dabf7"/>
<line x1="474.3" y1="149.7" x2="474.3" y2="145.7" stroke="#ff922b" stroke-width="1" opacity="0.6"/>
<circle cx="474.3" cy="149.7" r="5" fill="#4dabf7"/>
<line x1="557.1" y1="98.0" x2="557.1" y2="102.9" stroke="#ff922b" stroke-width="1" opacity="0.6"/>
<circle cx="557.1" cy="98.0" r="5" fill="#4dabf7"/>
<line x1="640.0" y1="61.4" x2="640.0" y2="60.0" stroke="#ff922b" stroke-width="1" opacity="0.6"/>
<circle cx="640.0" cy="61.4" r="5" fill="#4dabf7"/>
<text x="350" y="390" fill="#8b949e" font-size="12" text-anchor="middle">orange stubs are residuals the fit minimises</text>
</svg>