<svg xmlns="http://www.w3.org/2000/svg" width="760" height="380" viewBox="0 0 760 380" font-family="monospace">
<rect width="760" height="380" fill="#0d1117"/>
<text x="20" y="26" fill="#e6edf3" font-size="15">Signal (gray dots) and Prony reconstruction from 4 damped-sinusoid modes (green)</text>
<line x1="40" y1="220.6" x2="720" y2="220.6" stroke="#30363d" stroke-width="0.5"/>
<circle cx="40.0" cy="50.0" r="2" fill="#8b949e" opacity="0.7"/>
<circle cx="46.9" cy="117.7" r="2" fill="#8b949e" opacity="0.7"/>
<circle cx="53.7" cy="235.4" r="2" fill="#8b949e" opacity="0.7"/>
<circle cx="60.6" cy="324.6" r="2" fill="#8b949e" opacity="0.7"/>
<circle cx="67.5" cy="340.0" r="2" fill="#8b949e" opacity="0.7"/>
<circle cx="74.3" cy="299.2" r="2" fill="#8b949e" opacity="0.7"/>
<circle cx="81.2" cy="253.7" r="2" fill="#8b949e" opacity="0.7"/>
<circle cx="88.1" cy="235.4" r="2" fill="#8b949e" opacity="0.7"/>
<circle cx="94.9" cy="231.3" r="2" fill="#8b949e" opacity="0.7"/>
<circle cx="101.8" cy="207.8" r="2" fill="#8b949e" opacity="0.7"/>
<circle cx="108.7" cy="155.3" r="2" fill="#8b949e" opacity="0.7"/>
<circle cx="115.6" cy="106.3" r="2" fill="#8b949e" opacity="0.7"/>
<circle cx="122.4" cy="107.4" r="2" fill="#8b949e" opacity="0.7"/>
<circle cx="129.3" cy="173.9" r="2" fill="#8b949e" opacity="0.7"/>
<circle cx="136.2" cy="270.3" r="2" fill="#8b949e" opacity="0.7"/>
<circle cx="143.0" cy="337.6" r="2" fill="#8b949e" opacity="0.7"/>
<circle cx="149.9" cy="339.7" r="2" fill="#8b949e" opacity="0.7"/>
<circle cx="156.8" cy="288.9" r="2" fill="#8b949e" opacity="0.7"/>
<circle cx="163.6" cy="228.2" r="2" fill="#8b949e" opacity="0.7"/>
<circle cx="170.5" cy="191.6" r="2" fill="#8b949e" opacity="0.7"/>
<circle cx="177.4" cy="180.0" r="2" fill="#8b949e" opacity="0.7"/>
<circle cx="184.2" cy="172.6" r="2" fill="#8b949e" opacity="0.7"/>
<circle cx="191.1" cy="157.2" r="2" fill="#8b949e" opacity="0.7"/>
<circle cx="198.0" cy="147.0" r="2" fill="#8b949e" opacity="0.7"/>
<circle cx="204.8" cy="166.9" r="2" fill="#8b949e" opacity="0.7"/>
<circle cx="211.7" cy="223.8" r="2" fill="#8b949e" opacity="0.7"/>
<circle cx="218.6" cy="292.5" r="2" fill="#8b949e" opacity="0.7"/>
<circle cx="225.5" cy="331.6" r="2" fill="#8b949e" opacity="0.7"/>
<circle cx="232.3" cy="316.8" r="2" fill="#8b949e" opacity="0.7"/>
<circle cx="239.2" cy="259.5" r="2" fill="#8b949e" opacity="0.7"/>
<circle cx="246.1" cy="196.3" r="2" fill="#8b949e" opacity="0.7"/>
<circle cx="252.9" cy="159.0" r="2" fill="#8b949e" opacity="0.7"/>
<circle cx="259.8" cy="153.7" r="2" fill="#8b949e" opacity="0.7"/>
<circle cx="266.7" cy="165.2" r="2" fill="#8b949e" opacity="0.7"/>
<circle cx="273.5" cy="178.0" r="2" fill="#8b949e" opacity="0.7"/>
<circle cx="280.4" cy="192.0" r="2" fill="#8b949e" opacity="0.7"/>
<circle cx="287.3" cy="217.8" r="2" fill="#8b949e" opacity="0.7"/>
<circle cx="294.1" cy="257.9" r="2" fill="#8b949e" opacity="0.7"/>
<circle cx="301.0" cy="296.7" r="2" fill="#8b949e" opacity="0.7"/>
<circle cx="307.9" cy="308.7" r="2" fill="#8b949e" opacity="0.7"/>
<circle cx="314.7" cy="280.7" r="2" fill="#8b949e" opacity="0.7"/>
<circle cx="321.6" cy="224.4" r="2" fill="#8b949e" opacity="0.7"/>
<circle cx="328.5" cy="169.9" r="2" fill="#8b949e" opacity="0.7"/>
<circle cx="335.4" cy="143.6" r="2" fill="#8b949e" opacity="0.7"/>
<circle cx="342.2" cy="151.1" r="2" fill="#8b949e" opacity="0.7"/>
<circle cx="349.1" cy="178.6" r="2" fill="#8b949e" opacity="0.7"/>
<circle cx="356.0" cy="208.2" r="2" fill="#8b949e" opacity="0.7"/>
<circle cx="362.8" cy="232.0" r="2" fill="#8b949e" opacity="0.7"/>
<circle cx="369.7" cy="252.7" r="2" fill="#8b949e" opacity="0.7"/>
<circle cx="376.6" cy="272.4" r="2" fill="#8b949e" opacity="0.7"/>
<circle cx="383.4" cy="284.1" r="2" fill="#8b949e" opacity="0.7"/>
<circle cx="390.3" cy="275.5" r="2" fill="#8b949e" opacity="0.7"/>
<circle cx="397.2" cy="241.8" r="2" fill="#8b949e" opacity="0.7"/>
<circle cx="404.0" cy="194.3" r="2" fill="#8b949e" opacity="0.7"/>
<circle cx="410.9" cy="156.1" r="2" fill="#8b949e" opacity="0.7"/>
<circle cx="417.8" cy="146.0" r="2" fill="#8b949e" opacity="0.7"/>
<circle cx="424.6" cy="166.4" r="2" fill="#8b949e" opacity="0.7"/>
<circle cx="431.5" cy="203.2" r="2" fill="#8b949e" opacity="0.7"/>
<circle cx="438.4" cy="237.9" r="2" fill="#8b949e" opacity="0.7"/>
<circle cx="445.3" cy="259.7" r="2" fill="#8b949e" opacity="0.7"/>
<circle cx="452.1" cy="268.7" r="2" fill="#8b949e" opacity="0.7"/>
<circle cx="459.0" cy="268.8" r="2" fill="#8b949e" opacity="0.7"/>
<circle cx="465.9" cy="260.3" r="2" fill="#8b949e" opacity="0.7"/>
<circle cx="472.7" cy="240.2" r="2" fill="#8b949e" opacity="0.7"/>
<circle cx="479.6" cy="209.0" r="2" fill="#8b949e" opacity="0.7"/>
<circle cx="486.5" cy="176.2" r="2" fill="#8b949e" opacity="0.7"/>
<circle cx="493.3" cy="157.1" r="2" fill="#8b949e" opacity="0.7"/>
<circle cx="500.2" cy="162.7" r="2" fill="#8b949e" opacity="0.7"/>
<circle cx="507.1" cy="191.5" r="2" fill="#8b949e" opacity="0.7"/>
<circle cx="513.9" cy="229.5" r="2" fill="#8b949e" opacity="0.7"/>
<circle cx="520.8" cy="259.6" r="2" fill="#8b949e" opacity="0.7"/>
<circle cx="527.7" cy="272.1" r="2" fill="#8b949e" opacity="0.7"/>
<circle cx="534.5" cy="267.6" r="2" fill="#8b949e" opacity="0.7"/>
<circle cx="541.4" cy="252.5" r="2" fill="#8b949e" opacity="0.7"/>
<circle cx="548.3" cy="232.5" r="2" fill="#8b949e" opacity="0.7"/>
<circle cx="555.2" cy="210.2" r="2" fill="#8b949e" opacity="0.7"/>
<circle cx="562.0" cy="188.0" r="2" fill="#8b949e" opacity="0.7"/>
<circle cx="568.9" cy="172.1" r="2" fill="#8b949e" opacity="0.7"/>
<circle cx="575.8" cy="170.4" r="2" fill="#8b949e" opacity="0.7"/>
<circle cx="582.6" cy="187.3" r="2" fill="#8b949e" opacity="0.7"/>
<circle cx="589.5" cy="218.0" r="2" fill="#8b949e" opacity="0.7"/>
<circle cx="596.4" cy="250.0" r="2" fill="#8b949e" opacity="0.7"/>
<circle cx="603.2" cy="269.5" r="2" fill="#8b949e" opacity="0.7"/>
<circle cx="610.1" cy="269.9" r="2" fill="#8b949e" opacity="0.7"/>
<circle cx="617.0" cy="254.1" r="2" fill="#8b949e" opacity="0.7"/>
<circle cx="623.8" cy="230.6" r="2" fill="#8b949e" opacity="0.7"/>
<circle cx="630.7" cy="207.8" r="2" fill="#8b949e" opacity="0.7"/>
<circle cx="637.6" cy="190.5" r="2" fill="#8b949e" opacity="0.7"/>
<circle cx="644.4" cy="180.7" r="2" fill="#8b949e" opacity="0.7"/>
<circle cx="651.3" cy="180.3" r="2" fill="#8b949e" opacity="0.7"/>
<circle cx="658.2" cy="191.3" r="2" fill="#8b949e" opacity="0.7"/>
<circle cx="665.1" cy="212.9" r="2" fill="#8b949e" opacity="0.7"/>
<circle cx="671.9" cy="239.3" r="2" fill="#8b949e" opacity="0.7"/>
<circle cx="678.8" cy="260.5" r="2" fill="#8b949e" opacity="0.7"/>
<circle cx="685.7" cy="267.3" r="2" fill="#8b949e" opacity="0.7"/>
<circle cx="692.5" cy="257.0" r="2" fill="#8b949e" opacity="0.7"/>
<circle cx="699.4" cy="234.6" r="2" fill="#8b949e" opacity="0.7"/>
<circle cx="706.3" cy="209.8" r="2" fill="#8b949e" opacity="0.7"/>
<circle cx="713.1" cy="191.1" r="2" fill="#8b949e" opacity="0.7"/>
<circle cx="720.0" cy="183.0" r="2" fill="#8b949e" opacity="0.7"/>
<polyline points="40.0,50.0 46.9,117.7 53.7,235.4 60.6,324.6 67.5,340.0 74.3,299.2 81.2,253.7 88.1,235.4 94.9,231.3 101.8,207.8 108.7,155.3 115.6,106.3 122.4,107.4 129.3,173.9 136.2,270.3 143.0,337.6 149.9,339.7 156.8,288.9 163.6,228.2 170.5,191.6 177.4,180.0 184.2,172.6 191.1,157.2 198.0,147.0 204.8,166.9 211.7,223.8 218.6,292.5 225.5,331.6 232.3,316.8 239.2,259.5 246.1,196.3 252.9,159.0 259.8,153.7 266.7,165.2 273.5,178.0 280.4,192.0 287.3,217.8 294.1,257.9 301.0,296.7 307.9,308.7 314.7,280.7 321.6,224.4 328.5,169.9 335.4,143.6 342.2,151.1 349.1,178.6 356.0,208.2 362.8,232.0 369.7,252.7 376.6,272.4 383.4,284.1 390.3,275.5 397.2,241.8 404.0,194.3 410.9,156.1 417.8,146.0 424.6,166.4 431.5,203.2 438.4,237.9 445.3,259.7 452.1,268.7 459.0,268.8 465.9,260.3 472.7,240.2 479.6,209.0 486.5,176.2 493.3,157.1 500.2,162.7 507.1,191.5 513.9,229.5 520.8,259.6 527.7,272.1 534.5,267.6 541.4,252.5 548.3,232.5 555.2,210.2 562.0,188.0 568.9,172.1 575.8,170.4 582.6,187.3 589.5,218.0 596.4,250.0 603.2,269.5 610.1,269.9 617.0,254.1 623.8,230.6 630.7,207.8 637.6,190.5 644.4,180.7 651.3,180.3 658.2,191.3 665.1,212.9 671.9,239.3 678.8,260.5 685.7,267.3 692.5,257.0 699.4,234.6 706.3,209.8 713.1,191.1 720.0,183.0" fill="none" stroke="#06d6a0" stroke-width="1.5"/>
<text x="40" y="358" fill="#8b949e" font-size="10">the reconstruction lands on the samples: the model captures the signal exactly</text>
</svg>